<svg width="75" height="67" viewBox="0 0 75 67" fill="none" xmlns="http://www.w3.org/2000/svg">
<path d="M74.496 0.634248L72.576 13.9462C68.6507 13.6049 65.536 14.2876 63.232 15.9942C60.928 17.6156 59.3493 19.9623 58.496 23.0343C57.728 26.0209 57.6 29.4342 58.112 33.2742H74.496V66.1702H42.88V31.9942C42.88 20.8156 45.5253 12.3676 50.816 6.65025C56.1067 0.847581 64 -1.15775 74.496 0.634248ZM31.616 0.634248L29.696 13.9462C25.7707 13.6049 22.656 14.2876 20.352 15.9942C18.048 17.6156 16.4693 19.9623 15.616 23.0343C14.848 26.0209 14.72 29.4342 15.232 33.2742H31.616V66.1702H0V31.9942C0 20.8156 2.64533 12.3676 7.936 6.65025C13.2267 0.847581 21.12 -1.15775 31.616 0.634248Z" fill="#676A74"/>
</svg>
